<?xml version="1.0" standalone="no"?><!DOCTYPE svg PUBLIC "-//W3C//DTD SVG 1.1//EN" "http://www.w3.org/Graphics/SVG/1.1/DTD/svg11.dtd"><svg t="1511954448111" class="icon" style="" viewBox="0 0 1024 1024" version="1.1" xmlns="http://www.w3.org/2000/svg" p-id="1185" xmlns:xlink="http://www.w3.org/1999/xlink" width="200" height="200"><defs><style type="text/css"></style></defs><path d="M565.439 799.83h-152.275c-25.372 0-47.206-19.871-49.687-45.224-2.789-39.050-10.58-78.638-16.697-85.139-80.311-47.726-128.767-131.884-128.767-224.468 0-145.445 121.496-263.767 270.846-263.767 36.376 0 71.674 6.906 104.896 20.505l-11.197 27.354c-29.662-12.158-61.191-18.313-93.7-18.313-133.057 0-241.3 105.069-241.3 234.221 0 82.062 43.070 156.737 115.206 199.73 19.448 11.581 27.123 64.787 30.143 107.396 0.962 9.656 10.253 18.159 20.256 18.159h152.275c10.137 0 20.429-9.272 22.026-19.832 12.657-96.681 24.546-103.915 29.624-107.012 70.808-43.185 113.071-117.38 113.071-198.441 0-47.322-14.485-92.93-41.858-131.884l24.161-17.005c30.913 43.954 47.245 95.45 47.245 148.889 0 90.718-46.782 173.704-125.286 222.486-5.079 9.849-13.1 52.015-17.716 87.102-3.848 25.489-26.354 45.244-51.265 45.244zM483.934 161.532c-8.156 0-14.774-6.618-14.774-14.774v-59.094c0-8.156 6.618-14.774 14.774-14.774s14.774 6.618 14.774 14.774v59.094c0 8.157-6.617 14.774-14.774 14.774zM181.77 320.25c-2.059 0-4.155-0.424-6.137-1.327l-67.173-30.681c-7.425-3.405-10.696-12.158-7.31-19.583 3.405-7.425 12.215-10.676 19.583-7.31l67.173 30.681c7.425 3.405 10.696 12.158 7.31 19.583-2.481 5.425-7.848 8.637-13.446 8.637zM114.616 559.993c-5.348 0-10.503-2.905-13.138-7.964-3.751-7.232-0.923-16.158 6.31-19.928l65.538-34.049c7.252-3.713 16.178-0.904 19.928 6.31 3.751 7.232 0.923 16.158-6.31 19.928l-65.538 34.049c-1.976 1.041-4.319 1.653-6.805 1.654zM869.545 559.993c-2.289 0-4.616-0.538-6.79-1.654l-65.539-34.049c-7.232-3.77-10.060-12.696-6.31-19.928 3.77-7.214 12.696-10.003 19.928-6.31l65.538 34.049c7.232 3.77 10.060 12.696 6.31 19.928-2.635 5.059-7.79 7.964-13.137 7.964zM794.176 319.116c-5.77 0-11.253-3.405-13.619-9.061-3.154-7.521 0.385-16.178 7.906-19.333l70.001-29.374c7.521-3.193 16.178 0.385 19.333 7.906 3.154 7.521-0.385 16.178-7.906 19.333l-70.001 29.374c-1.683 0.729-3.643 1.154-5.702 1.154-0.004 0-0.007 0-0.011 0z" p-id="1186" fill="#f4ea2a"></path><path d="M379.113 851.042c0-8.159 6.81-14.774 14.742-14.774h190.007c0.006 0 0.014 0 0.021 0 8.131 0 14.721 6.591 14.721 14.721 0 0.019 0 0.037 0 0.055 0 8.156-6.81 14.77-14.742 14.77h-190.007c-0.006 0-0.014 0-0.021 0-8.131 0-14.721-6.591-14.721-14.721 0-0.019 0-0.037 0-0.055zM379.113 922.642c0-8.159 6.81-14.774 14.742-14.774h190.007c0.006 0 0.014 0 0.021 0 8.131 0 14.721 6.591 14.721 14.721 0 0.019 0 0.037 0 0.055 0 8.156-6.81 14.77-14.742 14.77h-190.007c-0.006 0-0.014 0-0.021 0-8.131 0-14.721-6.591-14.721-14.721 0-0.019 0-0.037 0-0.055z" p-id="1187" fill="#f4ea2a"></path><path d="M618.676 507.946c-0.005 0-0.010 0-0.017 0-5.821 0-10.948-2.961-13.961-7.461l-58.92-88.919-41.15 85.623c-2.777 5.794-8.637 9.489-15.087 9.511h-0.044c-6.592-0.002-12.295-3.8-15.043-9.327l-42.177-86.331-60.827 89.558c-5.204 7.609-15.611 9.665-23.33 4.439-7.653-5.204-9.665-15.655-4.439-23.33l77.095-113.5c3.345-4.942 8.921-7.631 15.087-7.303 6.229 0.454 11.475 4.25 13.988 9.586l39.515 80.911 38.942-81.031c2.602-5.444 7.959-9.052 13.971-9.467 6.384-0.328 11.807 2.427 15.152 7.478l75.214 113.501c5.116 7.719 3.018 18.148-4.723 23.264-2.591 1.753-5.785 2.799-9.224 2.799-0.008 0-0.017 0-0.026 0z" p-id="1188" fill="#f4ea2a"></path></svg>